# xmcd
#
# Track frame offsets:
#	150
#	18000
#	31633
#	54584
#	74902
#
# Disc length: 1154 seconds
#
# Revision: 1
# Processed by: cddbd v1.5.2PL0 Copyright (c) Steve Scherf et al.
# Submitted via: audiograbber 1.83.01
#
DISCID=39048005
DTITLE=Ronnie Meyer's Thunderblues - Rattlesnake Boogie
DYEAR=1900
DGENRE=Bluesrock
TTITLE0=Boom Baba Boom
TTITLE1=Always in Line for Your Love
TTITLE2=Stormy Monday Blues
TTITLE3=Louisiana Blues
TTITLE4=Swing Darling Swing
EXTD=Wer sind Ronnie Meyer's Thunderblues? Kennt man ZZTop, so bestehen große C
EXTD=hancen das man auch BarB.Q. kennt, Europas beste ZZTOP Coverband, die scho
EXTD=n seit Jahren die Highlights der Texanischen Bluesrocker auf die Bühne bri
EXTD=ngt. Das Line-up von Bar B.Q. ist auch das Line-up von THUNDERBLUES
EXTT0=(J. Vaughan) 3:56
EXTT1=(R.Meyer) 3:00
EXTT2=(A.Walker) 5:05
EXTT3=(McKinley Morganfield) 4:29
EXTT4=(R.Meyer) 2:36
PLAYORDER=
